<?xml version="1.0" encoding="UTF-8" standalone="no"?>
<!-- Created with Inkscape (http://www.inkscape.org/) -->

<svg
   xmlns:dc="http://purl.org/dc/elements/1.1/"
   xmlns:cc="http://creativecommons.org/ns#"
   xmlns:rdf="http://www.w3.org/1999/02/22-rdf-syntax-ns#"
   xmlns:svg="http://www.w3.org/2000/svg"
   xmlns="http://www.w3.org/2000/svg"
   xmlns:sodipodi="http://sodipodi.sourceforge.net/DTD/sodipodi-0.dtd"
   xmlns:inkscape="http://www.inkscape.org/namespaces/inkscape"
   width="210mm"
   height="297mm"
   viewBox="0 0 744.09448819 1052.3622047"
   id="svg2"
   version="1.1"
   inkscape:version="0.91 r13725"
   sodipodi:docname="IAPS logo.svg">
  <defs
     id="defs4" />
  <sodipodi:namedview
     id="base"
     pagecolor="#ffffff"
     bordercolor="#666666"
     borderopacity="1.0"
     inkscape:pageopacity="0.0"
     inkscape:pageshadow="2"
     inkscape:zoom="0.7"
     inkscape:cx="337.99396"
     inkscape:cy="631.57425"
     inkscape:document-units="px"
     inkscape:current-layer="g3360"
     showgrid="false"
     inkscape:window-width="1366"
     inkscape:window-height="705"
     inkscape:window-x="-8"
     inkscape:window-y="-8"
     inkscape:window-maximized="1" />
  <metadata
     id="metadata7">
    <rdf:RDF>
      <cc:Work
         rdf:about="">
        <dc:format>image/svg+xml</dc:format>
        <dc:type
           rdf:resource="http://purl.org/dc/dcmitype/StillImage" />
        <dc:title />
      </cc:Work>
    </rdf:RDF>
  </metadata>
  <g
     inkscape:label="Layer 1"
     inkscape:groupmode="layer"
     id="layer1">
    <g
       id="g3360"
       transform="translate(-1643.2769,-318.52244)">
      <path
         style="fill:#0257a8"
         d="m 2006.8333,735.33556 0,-64.6875 13.5937,0 13.5938,0 0,3.79771 0,3.79771 3.0984,-2.36334 c 6.6618,-5.08116 11.6566,-6.60039 21.765,-6.62006 8.7814,-0.0171 9.8114,0.18686 15.7769,3.12366 16.1172,7.93449 25.0834,24.68084 23.8125,44.47545 -1.5378,23.95274 -16.1062,39.78314 -38.326,41.64596 -7.2129,0.6047 -16.4056,-0.91406 -21.6133,-3.57085 -1.9257,-0.98243 -3.7291,-1.78624 -4.0074,-1.78624 -0.2784,0 -0.5061,10.54687 -0.5061,23.4375 l 0,23.4375 -13.5938,0 -13.5937,0 0,-64.6875 z m 52.2669,3.22179 c 8.8724,-4.4213 13.1374,-14.42539 12.1719,-28.55088 -0.7772,-11.37187 -4.591,-18.0246 -12.4076,-21.64354 -6.4568,-2.98941 -14.3633,-1.8743 -21.5865,3.04447 l -3.2444,2.20941 -0.01,20.75155 -0.01,20.75155 2.4326,1.59392 c 7.26,4.75695 15.4607,5.42452 22.6468,1.84352 z M 1756.052,794.9521 c -9.3623,-2.31986 -14.5192,-6.09196 -18.0599,-13.21029 -2.98,-5.99106 -3.9713,-12.75698 -3.9713,-27.10569 0,-7.3808 -0.4285,-15.67904 -0.9522,-18.44052 -1.901,-10.02381 -6.4839,-15.17322 -14.5852,-16.3881 l -4.1501,-0.62234 0,-10.55498 0,-10.55498 3.8484,-0.61539 c 12.305,-1.96765 15.8391,-9.55252 15.8391,-33.99383 0,-15.54027 0.9554,-21.94556 4.2425,-28.44292 4.8513,-9.58908 14.8491,-14.0625 31.4286,-14.0625 l 7.4539,0 0,10.78125 0,10.78125 -3.9844,0.006 c -6.004,0.007 -10.8435,1.67299 -12.5843,4.32993 -1.2128,1.85093 -1.7054,5.98072 -2.2588,18.93787 -1.1069,25.91287 -3.2753,32.44875 -13.4108,40.42232 -2.0045,1.57694 -3.2034,2.86715 -2.6642,2.86715 1.7005,0 9.3659,8.06978 11.2534,11.84703 3.0948,6.1932 4.0935,12.40806 4.8275,30.04208 0.5571,13.3822 1.0421,17.55282 2.2567,19.40661 1.7369,2.6508 6.5822,4.31618 12.5805,4.32405 l 3.9844,0.005 0,10.78125 0,10.78125 -8.2031,-0.0798 c -4.5118,-0.0439 -10.3125,-0.6024 -12.8907,-1.24123 z m 475.7813,-9.46029 0,-10.78125 3.9843,-0.006 c 5.9984,-0.007 10.8437,-1.67325 12.5805,-4.32405 1.2147,-1.85379 1.6997,-6.02441 2.2567,-19.4066 1.0536,-25.312 3.572,-32.80799 13.4725,-40.10089 2.0352,-1.49915 3.2341,-2.72573 2.6642,-2.72573 -1.7351,0 -9.3832,-7.99563 -11.332,-11.84702 -2.9377,-5.8053 -4.0441,-12.83902 -4.7987,-30.50495 -0.5534,-12.95715 -1.046,-17.08693 -2.2588,-18.93787 -1.7409,-2.65694 -6.5803,-4.32205 -12.5844,-4.32993 l -3.9843,-0.005 0,-10.78125 0,-10.78125 7.4538,0 c 16.5796,0 26.5773,4.47342 31.4286,14.0625 3.2871,6.49736 4.2426,12.90265 4.2426,28.44292 0,24.44131 3.5341,32.02618 15.8391,33.99383 l 3.8484,0.61539 0,10.54161 0,10.5416 -3.8484,0.6154 c -12.305,1.96764 -15.8391,9.55251 -15.8391,33.99382 0,23.81786 -3.3095,32.82272 -14.0625,38.26287 -5.6846,2.87594 -12.6453,4.24256 -21.6087,4.24256 l -7.4538,0 0,-10.78125 z m -333.7561,-27.5947 c -9.6989,-2.95027 -16.8689,-11.66682 -16.8689,-20.50744 0,-5.16644 2.1434,-11.61446 5.1874,-15.60532 3.4104,-4.4713 15.3286,-10.25597 33.0157,-16.02465 l 13.3594,-4.35718 0,-3.05109 c 0,-4.17686 -3.5734,-9.17746 -7.5325,-10.54109 -9.8773,-3.40199 -24.7927,0.75804 -34.6511,9.66445 -1.9318,1.7453 -3.7777,3.17327 -4.1019,3.17327 -0.3242,0 -0.5895,-4.87236 -0.5895,-10.82746 l 0,-10.82746 6.7969,-3.20995 c 10.9251,-5.15957 17.3576,-6.50426 31.1718,-6.51634 18.4394,-0.0161 27.7737,3.80172 33.2813,13.61249 2.304,4.10419 2.3517,4.61203 2.8125,29.95622 0.2578,14.17968 0.81,26.30859 1.2272,26.95312 1.1751,1.81575 4.6373,1.3945 9.4144,-1.1455 l 4.3584,-2.31737 0,7.40554 0,7.40554 -5.0831,2.4047 c -15.303,7.23945 -30.8957,6.68117 -34.3982,-1.23159 -0.7097,-1.60333 -1.5035,-2.80593 -1.7639,-2.67244 -0.2605,0.13349 -3.1074,1.61538 -6.3265,3.29308 -9.8471,5.13206 -21.9969,7.19083 -29.3094,4.96647 z m 25.7974,-16.30475 c 1.5524,-0.60531 4.1891,-1.92979 5.8594,-2.94331 l 3.0368,-1.84276 0,-10.52862 0,-10.52863 -4.943,1.70063 c -7.2647,2.49943 -13.9565,6.10811 -16.6195,8.96237 -1.8534,1.98644 -2.3438,3.49409 -2.3438,7.20522 0,3.9798 0.3998,5.03705 2.6304,6.95572 2.9176,2.50964 7.5742,2.89307 12.3797,1.01938 z m 228.8897,16.19854 c -2.4958,-0.41889 -7.4528,-1.64703 -11.0156,-2.72922 l -6.4779,-1.96759 0,-9.29752 0,-9.29753 5.2476,1.80545 c 21.0176,7.23111 38.8002,5.63339 36.5618,-3.28497 -0.6888,-2.74439 -3.1895,-4.34294 -13.3793,-8.55262 -17.7146,-7.31833 -24.1251,-11.59285 -27.5996,-18.40357 -8.0238,-15.72783 2.6401,-32.33529 23.3716,-36.39809 8.6581,-1.69675 21.4462,-0.69254 30.876,2.42456 l 7.7344,2.55668 0,9.67333 0,9.67333 -6.7969,-3.20543 c -11.9088,-5.6162 -24.2759,-7.6413 -29.7501,-4.87153 -1.2805,0.64789 -2.7484,2.37308 -3.2621,3.83376 -0.8117,2.30802 -0.6162,2.92913 1.4928,4.7433 1.3348,1.14813 5.9669,3.49389 10.2935,5.21282 22.2692,8.84735 30.2085,16.05691 31.5039,28.60814 1.4875,14.41175 -7.0621,25.53856 -22.2833,29.00053 -6.7577,1.53701 -18.8975,1.75501 -26.5168,0.47617 z m -338.1185,-44.01784 0,-43.125 13.5937,0 13.5938,0 0,43.125 0,43.125 -13.5938,0 -13.5937,0 0,-43.125 z m 6.9848,-58.50619 c -1.5725,-0.68491 -3.9815,-2.57925 -5.3534,-4.20965 -11.3662,-13.50802 8.0179,-31.35306 21.3458,-19.65097 12.3927,10.88089 -0.7553,30.49752 -15.9924,23.86062 z"
         id="path3368"
         inkscape:connector-curvature="0"
         inkscape:export-xdpi="789.71246"
         inkscape:export-ydpi="789.71246" />
      <path
         style="fill:#04386a"
         d="m 676.11172,576.05461 c 0,-0.20265 0.6547,-0.61969 1.4549,-0.92677 0.8343,-0.32014 1.2107,-0.16298 0.8822,0.36845 -0.5505,0.89082 -2.3371,1.31761 -2.3371,0.55832 z m -515.74459,-3.14718 c -1.16613,-1.48693 -1.13297,-1.52009 0.35396,-0.35396 1.56164,1.22472 2.05827,1.99459 1.28667,1.99459 -0.19468,0 -0.93296,-0.73828 -1.64063,-1.64063 z m 524.75689,-5.09342 c 0.2707,-0.43809 0.885,-0.55382 1.365,-0.25716 1.2266,0.75808 1.0885,1.05371 -0.4923,1.05371 -0.7508,0 -1.1435,-0.35844 -0.8727,-0.79655 z m -36.12579,-2.25032 c 0.045,-1.09215 0.26713,-1.31429 0.5664,-0.56641 0.27082,0.67675 0.23752,1.48535 -0.074,1.79687 -0.31152,0.31153 -0.5331,-0.24219 -0.49239,-1.23046 z m 17.11348,-8.31814 c 0,-0.75076 0.35845,-1.14348 0.79655,-0.87272 0.4381,0.27076 0.55383,0.88501 0.25717,1.36501 -0.75808,1.2266 -1.05372,1.08849 -1.05372,-0.49229 z m -312.0246,-18.31176 c -0.32845,-0.53143 0.0479,-0.68859 0.88216,-0.36845 1.62415,0.62325 1.92131,1.29522 0.57278,1.29522 -0.48519,0 -1.13993,-0.41705 -1.45494,-0.92677 z m -47.46998,-1.65136 c -1.16613,-1.48693 -1.13297,-1.52009 0.35396,-0.35396 0.90235,0.70767 1.64063,1.44595 1.64063,1.64062 0,0.7716 -0.76987,0.27498 -1.99459,-1.28666 z m 301.05709,-1.07157 c 0,-0.46046 0.69248,-1.10293 1.53885,-1.42771 1.2867,-0.49375 1.34469,-0.35657 0.35396,0.8372 -1.35012,1.62679 -1.89281,1.7961 -1.89281,0.59051 z M 390.59248,525.71637 c -0.34644,-0.56056 -0.24979,-1.39928 0.21476,-1.86383 0.5012,-0.50121 0.90174,-0.0868 0.98505,1.01918 0.15676,2.08104 -0.25606,2.37165 -1.19981,0.84465 z m 86.34998,-0.77574 c -0.30186,-0.48841 -0.14922,-1.13499 0.33919,-1.43683 0.48841,-0.30186 1.13498,-0.14922 1.43683,0.33919 0.30185,0.4884 0.14922,1.13498 -0.33919,1.43683 -0.48841,0.30185 -1.13498,0.14922 -1.43683,-0.33919 z m 34.16926,-7.52474 c 0,-0.4852 0.41704,-1.13993 0.92676,-1.45495 0.53143,-0.32844 0.6886,0.0479 0.36845,0.88217 -0.62324,1.62415 -1.29521,1.92131 -1.29521,0.57278 z m 83.4375,-0.0553 c -0.77344,-0.49984 -0.98438,-0.90879 -0.46875,-0.90879 0.51562,0 1.57031,0.40895 2.34375,0.90879 0.77344,0.49983 0.98437,0.90878 0.46875,0.90878 -0.51563,0 -1.57031,-0.40895 -2.34375,-0.90878 z m -106.40625,-11.25 c 0.31867,-0.51563 0.76545,-0.9375 0.99283,-0.9375 0.22738,0 0.41342,0.42187 0.41342,0.9375 0,0.51562 -0.44678,0.9375 -0.99283,0.9375 -0.54606,0 -0.7321,-0.42188 -0.41342,-0.9375 z m 123.97479,-5.19419 c -1.4127,-1.30993 -2.56854,-2.65449 -2.56854,-2.9879 0,-0.33341 1.26562,0.60634 2.8125,2.08834 2.58437,2.47598 3.21472,3.28125 2.56854,3.28125 -0.13417,0 -1.3998,-1.07176 -2.8125,-2.38169 z m -55.48383,-5.05924 c -0.90387,-0.99876 -1.3885,-2.22834 -1.07696,-2.73243 0.31153,-0.50407 0.0365,-1.13016 -0.61129,-1.39131 -0.73378,-0.29583 -0.77925,-0.5027 -0.12062,-0.54882 0.58139,-0.0407 1.63607,0.63978 2.34375,1.5122 0.87426,1.07781 0.91106,1.36056 0.11478,0.88217 -1.66704,-1.00153 -1.45018,0.3577 0.37968,2.37967 0.85335,0.94295 1.34062,1.71445 1.0828,1.71445 -0.25781,0 -1.20827,-0.81717 -2.11214,-1.81593 z m -389.5107,-11.95687 c -0.10695,-1.61332 1.55213,-2.38832 2.34981,-1.09764 0.40433,0.65422 0.27349,0.84741 -0.3239,0.4782 -0.55126,-0.3407 -1.21594,-0.0894 -1.47708,0.55827 -0.33985,0.84295 -0.49586,0.86034 -0.54883,0.0611 z m 141.11026,-3.89324 c -0.32442,-0.52492 -0.13303,-1.23674 0.42531,-1.58181 1.44139,-0.89082 2.37138,0.32939 1.16811,1.53266 -0.6733,0.67329 -1.19768,0.68947 -1.59342,0.0491 z m 202.25322,-1.51147 c 0,-0.75076 0.35845,-1.14348 0.79655,-0.87272 0.4381,0.27076 0.55383,0.88501 0.25717,1.36501 -0.75808,1.2266 -1.05372,1.08849 -1.05372,-0.49229 z m 182.50001,-5.19749 c 0,-0.51563 0.4468,-0.9375 0.9928,-0.9375 0.5461,0 0.7321,0.42187 0.4135,0.9375 -0.3187,0.51562 -0.7655,0.9375 -0.9929,0.9375 -0.2274,0 -0.4134,-0.42188 -0.4134,-0.9375 z M 576.6161,470.30694 c 1.03294,-1.36973 3.87062,-1.43534 3.87062,-0.0895 0,0.25781 -0.58141,0.24564 -1.29201,-0.027 -0.7106,-0.27269 -1.85042,-0.002 -2.53292,0.60282 -1.02331,0.90598 -1.03132,0.82071 -0.0457,-0.48628 z m 18.69484,-0.46177 c 0.67675,-0.27081 1.48535,-0.23751 1.79687,0.074 0.31153,0.31152 -0.24219,0.5331 -1.23046,0.49239 -1.09214,-0.045 -1.31429,-0.26713 -0.56641,-0.5664 z m -99.31881,-9.43771 c -1.19017,-1.51759 -1.14605,-1.53748 0.58834,-0.26528 1.03125,0.75644 2.05078,1.49472 2.26563,1.64062 0.21483,0.14591 -0.0499,0.26529 -0.58834,0.26529 -0.53843,0 -1.55796,-0.73828 -2.26563,-1.64063 z m -183.99314,-0.40592 c 0.27076,-0.43809 0.88501,-0.55382 1.36501,-0.25716 1.22661,0.75808 1.08849,1.05371 -0.49229,1.05371 -0.75076,0 -1.14348,-0.35844 -0.87272,-0.79655 z m 175.55564,-3.34408 c -1.16613,-1.48693 -1.13297,-1.52009 0.35396,-0.35396 0.90235,0.70767 1.64063,1.44595 1.64063,1.64062 0,0.7716 -0.76987,0.27498 -1.99459,-1.28666 z m -7.06792,-1.59938 c 0,-0.75076 0.35845,-1.14348 0.79655,-0.87272 0.4381,0.27076 0.55383,0.88501 0.25717,1.36501 -0.75808,1.2266 -1.05372,1.08849 -1.05372,-0.49229 z m -231.1875,-15.62633 c 0.63595,-0.6407 1.39242,-0.92875 1.68106,-0.6401 0.28865,0.28864 -0.23166,0.81286 -1.15624,1.16492 -1.33613,0.50876 -1.44381,0.40108 -0.52482,-0.52482 z m -13.38229,-0.88353 c -0.33987,-0.54993 -0.41689,-1.20094 -0.17114,-1.44669 0.24573,-0.24575 0.69662,0.2042 1.00195,0.99987 0.63392,1.65198 0.0937,1.94256 -0.83081,0.44682 z m 17.26271,-22.20326 c -1.16613,-1.48693 -1.13297,-1.52009 0.35396,-0.35396 0.90235,0.70767 1.64063,1.44595 1.64063,1.64062 0,0.7716 -0.76987,0.27498 -1.99459,-1.28666 z m 430.96109,-0.89706 c -0.5087,-1.33613 -0.4011,-1.44381 0.5248,-0.52482 0.6407,0.63595 0.9288,1.39242 0.6401,1.68106 -0.2886,0.28865 -0.8128,-0.23166 -1.1649,-1.15624 z m -523.654,-1.58076 c 0,-0.20265 0.65472,-0.61969 1.45494,-0.92677 0.8343,-0.32014 1.21061,-0.16298 0.88217,0.36845 -0.55056,0.89082 -2.33711,1.31761 -2.33711,0.55832 z m 516.1004,-3.37082 c -0.3285,-0.53143 0.048,-0.68859 0.8822,-0.36845 1.6241,0.62325 1.9213,1.29522 0.5727,1.29522 -0.4852,0 -1.1399,-0.41705 -1.4549,-0.92677 z"
         id="path3362"
         inkscape:connector-curvature="0" />
    </g>
  </g>
</svg>
